<svg xmlns="http://www.w3.org/2000/svg" viewBox="0 0 100 100">
  <!-- Shield background -->
  <path d="M50 5 L90 20 L90 50 C90 75 70 90 50 95 C30 90 10 75 10 50 L10 20 Z" fill="#1e3a5f"/>
  <path d="M50 10 L85 23 L85 50 C85 72 67 85 50 90 C33 85 15 72 15 50 L15 23 Z" fill="#2563eb"/>

  <!-- Open book -->
  <path d="M30 45 Q50 40 50 55 Q50 40 70 45 L70 65 Q50 60 50 75 Q50 60 30 65 Z" fill="white"/>
  <line x1="50" y1="55" x2="50" y2="75" stroke="#1e3a5f" stroke-width="1"/>

  <!-- Star above book -->
  <polygon points="50,28 52,34 58,34 53,38 55,44 50,40 45,44 47,38 42,34 48,34" fill="#fbbf24"/>

  <!-- Banner -->
  <path d="M20 78 L80 78 L80 88 L50 83 L20 88 Z" fill="#1e3a5f"/>
  <text x="50" y="85" text-anchor="middle" fill="white" font-size="6" font-family="Arial" font-weight="bold">EST. 1985</text>
</svg>
