<svg xmlns="http://www.w3.org/2000/svg" width="301" height="249" viewBox="40 25 301 249">
<g>
<path d="M 49.18 149.50 C49.14,158.85 48.73,168.52 48.25,171.00 L 47.39 175.50 L 45.28 169.94 C41.79,160.73 39.33,141.85 41.83,143.39 C42.82,144.01 44.98,128.10 45.13,119.00 C45.19,115.43 44.68,107.31 43.99,100.96 C43.01,91.89 42.99,86.53 43.92,75.96 C45.95,52.94 46.21,45.96 45.12,44.64 C44.55,43.96 43.77,41.40 43.39,38.95 C43.01,36.50 42.26,34.21 41.72,33.86 C41.19,33.51 40.69,31.49 40.62,29.36 L 40.50 25.50 L 93.00 25.24 C148.89,24.96 160.24,25.68 165.52,29.84 L 167.81 31.64 L 163.61 32.76 C161.02,33.45 157.91,33.57 155.46,33.06 C149.04,31.73 50.12,31.99 49.29,33.34 C48.62,34.42 47.64,43.81 47.86,47.00 C48.16,51.25 49.23,134.85 49.18,149.50 ZM 180.73 237.02 C177.28,239.13 174.48,239.65 175.50,238.00 C176.30,236.70 170.51,236.34 163.50,237.24 C162.09,237.42 161.55,236.96 161.66,235.65 C161.78,234.23 161.28,233.91 159.47,234.25 C156.75,234.77 155.29,234.07 154.83,232.03 C154.27,229.56 151.62,227.21 149.00,226.85 C147.10,226.58 146.42,225.82 146.17,223.64 C145.93,221.53 146.19,220.96 147.17,221.47 C147.90,221.84 147.20,221.03 145.61,219.68 C142.94,217.39 142.16,217.25 135.03,217.74 C128.50,218.18 127.11,218.00 125.91,216.52 C121.75,211.38 118.81,208.86 117.55,209.34 C115.05,210.30 113.66,207.43 114.90,203.86 C115.83,201.19 115.72,200.35 114.26,198.72 C111.26,195.40 120.88,201.03 144.00,216.15 C148.12,218.84 156.86,224.35 163.41,228.38 L 175.33 235.71 L 180.75 232.60 C189.14,227.81 201.18,214.70 204.09,207.19 C205.69,203.06 206.98,201.10 207.99,201.26 C210.01,201.58 210.53,197.50 208.83,194.69 C207.76,192.93 207.63,186.04 208.14,159.50 C208.50,141.35 209.01,124.38 209.29,121.78 C209.64,118.44 209.37,116.72 208.37,115.89 C207.59,115.25 207.21,113.92 207.52,112.94 C208.24,110.66 206.34,109.47 204.46,111.04 C202.41,112.73 202.48,110.38 204.53,108.32 C206.28,106.58 212.40,107.23 213.68,109.29 C214.52,110.64 214.12,203.52 213.26,205.75 C212.97,206.53 211.99,206.97 211.08,206.73 C209.36,206.28 206.70,208.36 207.70,209.37 C208.57,210.23 205.92,213.07 204.86,212.41 C204.36,212.10 204.03,212.22 204.14,212.68 C204.51,214.32 202.11,218.74 200.52,219.35 C199.57,219.72 199.15,219.57 199.51,218.99 C199.84,218.44 199.88,218.00 199.59,218.00 C199.31,218.00 198.56,218.95 197.94,220.12 C197.31,221.29 197.23,221.98 197.75,221.65 C198.28,221.33 199.56,221.69 200.60,222.45 C202.44,223.79 202.42,223.90 200.09,225.92 C198.77,227.06 197.32,228.00 196.87,228.00 C196.41,228.00 195.75,229.14 195.40,230.53 C195.06,231.92 193.87,233.54 192.76,234.13 C191.52,234.79 190.99,234.82 191.38,234.19 C192.23,232.82 191.02,229.87 189.90,230.56 C189.40,230.87 189.00,230.63 189.00,230.03 C189.00,229.36 187.82,229.56 185.92,230.54 C183.93,231.57 183.04,232.65 183.40,233.59 C183.75,234.52 182.78,235.77 180.73,237.02 ZM 115.72 183.98 C115.96,187.10 114.84,187.06 108.64,183.73 C97.34,177.67 87.39,165.09 83.59,152.07 C82.25,147.51 82.00,140.18 82.00,106.32 L 82.00 66.00 L 121.79 66.00 L 130.43 75.97 C135.18,81.46 139.08,86.30 139.10,86.72 C139.12,87.15 139.90,88.35 140.82,89.40 C142.43,91.21 142.41,91.24 140.23,90.10 C138.98,89.44 137.57,89.15 137.08,89.45 C136.26,89.96 134.54,87.24 134.81,85.85 C134.88,85.49 134.16,84.59 133.22,83.85 C131.67,82.63 131.63,82.67 132.87,84.25 C133.63,85.21 133.85,86.00 133.36,86.00 C132.88,86.00 131.89,85.05 131.17,83.90 C130.24,82.42 130.21,82.01 131.06,82.53 C131.82,83.01 132.09,82.78 131.79,81.89 C131.51,81.08 130.18,80.59 128.59,80.71 C126.38,80.88 125.67,80.36 124.83,77.94 C123.74,74.83 120.53,72.34 119.58,73.88 C118.46,75.68 113.96,75.77 112.71,74.03 C109.57,69.59 99.98,68.59 92.65,71.93 C86.75,74.62 85.65,77.08 86.89,84.80 C87.50,88.58 87.68,103.59 87.34,122.98 C86.85,151.64 86.96,155.10 88.42,156.57 C89.32,157.46 90.67,157.96 91.43,157.66 C93.16,157.00 95.99,160.02 96.04,162.58 C96.07,163.64 96.69,166.18 97.42,168.23 C98.15,170.29 98.36,171.72 97.88,171.42 C97.39,171.13 97.00,171.30 97.00,171.82 C97.00,173.17 99.57,175.10 100.34,174.32 C100.70,173.96 101.00,174.12 101.00,174.67 C101.00,175.22 101.56,175.70 102.25,175.74 C102.94,175.78 105.60,176.14 108.17,176.53 C112.75,177.24 112.85,177.20 113.27,174.38 C113.53,172.65 113.76,173.61 113.85,176.75 C113.93,179.64 114.35,182.00 114.79,182.00 C115.22,182.00 115.64,182.89 115.72,183.98 ZM 156.62 258.75 C156.70,262.91 156.51,263.76 155.83,262.25 C155.65,261.84 153.79,260.60 151.69,259.50 C147.83,257.47 114.05,236.60 104.05,230.06 C101.05,228.10 95.87,224.98 92.55,223.12 C82.73,217.64 76.26,212.69 66.88,203.49 C56.60,193.42 50.34,184.10 51.89,181.20 C53.82,177.60 55.62,176.77 57.47,178.61 C58.40,179.54 58.94,181.11 58.68,182.10 C57.95,184.90 60.29,187.20 64.07,187.39 L 67.50 187.57 L 67.51 193.53 C67.51,196.82 67.94,200.18 68.45,201.00 C69.28,202.33 69.17,202.33 67.50,201.00 C65.83,199.67 65.71,199.67 66.46,201.00 C68.56,204.76 71.38,206.94 73.44,206.42 C74.62,206.13 76.80,206.35 78.29,206.92 C80.16,207.63 81.00,207.63 81.00,206.91 C81.00,206.33 82.01,206.00 83.25,206.18 C84.98,206.43 85.57,207.26 85.81,209.77 C86.15,213.21 89.48,216.26 93.21,216.53 C95.48,216.70 97.04,218.73 96.33,220.58 C95.70,222.22 99.49,226.01 101.75,225.98 C102.71,225.97 106.59,225.31 110.37,224.51 C115.16,223.49 117.80,223.36 119.12,224.06 C121.57,225.38 121.50,225.81 118.39,228.69 C115.88,231.01 115.85,231.18 117.55,233.05 C118.52,234.12 120.56,235.00 122.10,235.00 C125.20,235.00 126.57,236.50 126.18,239.50 C125.77,242.72 131.60,245.27 138.66,244.95 C147.49,244.56 147.70,244.63 147.51,247.90 C147.38,249.95 147.72,250.66 148.66,250.30 C149.39,250.02 150.27,250.54 150.62,251.45 C150.97,252.37 151.78,252.91 152.42,252.67 C154.69,251.80 156.55,254.48 156.62,258.75 ZM 79.78 176.75 C78.29,178.57 76.02,178.28 75.88,176.25 C75.70,173.48 75.49,172.66 74.27,170.00 C73.64,168.62 72.85,165.81 72.52,163.75 C72.18,161.64 70.82,158.99 69.43,157.69 C67.02,155.46 66.91,154.78 65.85,134.92 C65.12,121.19 65.09,111.09 65.74,104.27 C66.36,97.73 66.36,88.51 65.75,78.47 C64.89,64.49 64.98,62.35 66.55,58.23 C68.09,54.20 68.41,53.88 69.09,55.72 C69.52,56.88 70.80,58.12 71.94,58.48 C73.71,59.04 74.00,59.95 74.00,64.98 C74.00,68.20 73.53,70.99 72.95,71.18 C70.20,72.10 70.13,108.88 72.88,109.79 C73.61,110.04 74.00,113.67 74.00,120.08 C74.00,127.89 73.70,130.00 72.61,130.00 C70.66,130.00 70.02,132.21 69.90,139.33 C69.85,142.72 69.47,146.62 69.07,148.00 C68.17,151.11 69.75,155.03 71.62,154.31 C72.38,154.02 73.00,153.16 73.00,152.39 C73.00,151.63 73.45,151.00 74.00,151.00 C74.55,151.00 75.00,151.71 75.00,152.57 C75.00,153.43 76.44,157.60 78.21,161.82 C81.36,169.39 81.87,174.21 79.78,176.75 ZM 168.19 157.24 C165.27,160.96 162.80,163.98 162.69,163.96 C162.59,163.93 160.80,161.80 158.73,159.21 C156.66,156.62 152.16,151.26 148.73,147.31 C142.83,140.51 128.80,124.17 119.89,113.75 C117.66,111.14 115.42,109.00 114.92,109.00 C114.41,109.00 114.00,113.47 114.00,118.94 C114.00,124.49 113.56,129.16 113.00,129.50 C112.45,129.84 111.95,129.53 111.89,128.81 C111.82,128.09 111.63,126.26 111.45,124.75 C111.27,123.24 111.50,122.00 111.97,122.00 C112.44,122.00 112.23,119.78 111.52,117.06 C110.80,114.34 110.42,111.91 110.68,111.65 C110.94,111.39 111.29,110.35 111.46,109.34 C111.63,108.33 112.30,107.62 112.96,107.77 C113.61,107.93 113.87,107.60 113.54,107.06 C113.20,106.52 113.92,105.08 115.14,103.86 C116.90,102.10 117.21,102.01 116.66,103.44 C116.16,104.75 116.37,105.07 117.44,104.66 C118.47,104.27 118.72,104.58 118.28,105.71 C117.87,106.79 118.05,107.09 118.83,106.61 C119.47,106.21 120.00,106.36 120.00,106.94 C120.00,107.52 120.34,107.95 120.75,107.88 C125.72,107.10 129.01,111.12 126.42,114.81 C125.14,116.63 125.18,116.92 126.74,117.40 C127.71,117.70 129.85,117.79 131.50,117.61 C136.58,117.03 137.06,117.64 136.34,123.76 C135.82,128.23 135.95,129.15 137.01,128.49 C137.96,127.90 138.17,128.12 137.73,129.26 C137.18,130.68 137.47,130.70 140.51,129.43 C144.16,127.91 145.75,128.83 144.21,131.58 C143.44,132.97 143.13,132.99 141.88,131.74 C140.74,130.59 140.21,130.55 139.28,131.55 C138.38,132.51 138.57,133.21 140.10,134.59 C142.02,136.33 142.06,136.32 141.42,134.44 C141.01,133.23 141.92,133.81 143.84,135.96 C145.54,137.87 146.50,139.69 145.98,140.01 C144.57,140.88 150.85,148.00 153.04,148.00 C155.06,148.00 157.60,151.62 157.14,153.85 C156.99,154.59 157.34,154.91 157.92,154.55 C158.59,154.13 158.73,154.55 158.30,155.70 C157.71,157.29 157.83,157.34 159.33,156.12 C160.55,155.12 160.73,154.38 159.97,153.47 C158.15,151.27 163.72,147.73 167.80,148.49 C172.21,149.32 174.00,147.70 174.00,142.91 C174.00,140.18 174.54,138.78 175.87,138.07 C176.90,137.52 178.02,137.35 178.37,137.70 C178.72,138.05 179.00,137.73 179.00,137.00 C179.00,136.27 179.29,135.96 179.65,136.32 C180.63,137.29 182.93,133.82 182.97,131.32 C183.00,129.17 186.09,127.32 187.84,128.40 C189.27,129.28 194.33,123.29 193.65,121.52 C193.26,120.52 193.68,119.69 194.77,119.29 C195.72,118.94 197.57,117.84 198.88,116.83 C200.20,115.82 201.72,115.00 202.27,115.00 C202.82,115.00 202.09,115.93 200.65,117.06 C199.22,118.19 198.11,119.43 198.20,119.81 C198.28,120.19 196.26,122.68 193.71,125.35 C191.16,128.02 189.17,130.54 189.28,130.94 C189.40,131.35 185.90,135.91 181.50,141.08 C177.10,146.26 171.11,153.53 168.19,157.24 ZM 273.71 220.03 C264.13,222.63 243.00,224.06 243.00,222.11 C243.00,220.06 245.86,214.00 246.83,214.00 C247.71,214.00 248.26,210.47 249.64,195.75 C250.25,189.16 250.34,189.00 253.09,189.00 C258.23,189.00 266.41,186.81 273.61,183.52 C282.15,179.61 292.85,169.96 297.22,162.25 C298.85,159.36 300.52,156.80 300.91,156.55 C301.31,156.31 301.61,158.56 301.57,161.55 C301.53,164.55 301.05,167.05 300.50,167.12 C299.95,167.19 298.49,167.25 297.25,167.26 C296.01,167.27 294.94,167.66 294.88,168.14 C294.81,168.61 294.64,169.45 294.50,170.00 C294.36,170.55 294.19,172.01 294.11,173.25 C294.03,174.49 293.55,176.16 293.04,176.96 C292.23,178.25 290.99,178.56 285.19,178.92 C284.47,178.96 284.16,179.44 284.49,179.99 C284.84,180.56 284.44,180.72 283.55,180.38 C282.64,180.03 281.94,180.35 281.85,181.14 C281.76,181.89 281.59,182.95 281.46,183.50 C281.34,184.05 281.18,185.12 281.12,185.88 C281.03,186.84 280.15,187.08 278.15,186.68 C274.50,185.95 264.47,188.26 262.14,190.37 C261.16,191.26 259.19,192.09 257.77,192.21 C255.61,192.39 255.09,193.04 254.58,196.21 C254.25,198.29 253.53,200.00 252.99,200.00 C252.39,200.00 252.19,202.78 252.47,207.12 C252.82,212.38 253.40,214.59 254.72,215.59 C256.77,217.14 262.34,217.42 264.82,216.10 C265.74,215.61 270.99,214.91 276.47,214.54 L 286.44 213.88 L 284.18 215.84 C282.94,216.92 278.23,218.81 273.71,220.03 ZM 206.90 38.55 C206.23,41.55 205.30,44.00 204.84,44.00 C204.38,44.00 204.00,39.72 204.00,34.50 L 204.00 25.00 L 223.04 25.00 C248.22,25.00 268.66,27.38 275.00,31.05 C275.87,31.55 264.06,31.83 247.00,31.71 C230.77,31.59 215.39,31.86 212.81,32.30 L 208.12 33.10 ZM 193.74 89.18 C192.19,90.16 191.11,90.12 188.21,88.95 C185.53,87.88 186.14,86.04 190.53,82.00 C192.03,80.62 195.69,76.46 198.67,72.75 L 204.09 66.00 L 243.00 66.00 L 243.00 70.00 C243.00,72.20 242.55,74.00 242.00,74.00 C241.45,74.00 241.00,74.63 241.00,75.41 C241.00,76.32 240.30,76.63 239.00,76.29 C237.90,76.00 237.00,75.37 237.00,74.88 C237.00,74.40 235.54,73.97 233.75,73.93 C231.16,73.87 230.90,73.70 232.46,73.09 C234.28,72.38 234.25,72.28 231.96,71.73 C226.50,70.42 209.43,69.84 206.77,70.88 C205.25,71.46 203.35,73.41 202.50,75.22 C201.66,77.02 201.16,77.79 201.39,76.92 C201.66,75.89 201.18,75.39 199.99,75.48 C196.72,75.72 195.45,77.76 195.21,83.14 C195.09,86.03 194.42,88.75 193.74,89.18 ZM 312.76 140.00 C312.53,147.65 312.30,148.52 310.50,148.74 C306.36,149.23 305.65,146.69 307.02,136.35 C307.82,130.33 307.99,124.25 307.50,119.68 C307.07,115.73 306.80,110.59 306.90,108.25 C307.03,105.29 306.68,104.00 305.75,104.00 C305.01,104.00 302.97,100.96 301.20,97.25 C297.81,90.13 297.32,88.00 299.07,88.00 C300.46,88.00 303.07,90.60 302.37,91.30 C302.07,91.59 302.74,93.90 303.86,96.42 C305.50,100.13 306.32,100.95 308.19,100.75 C310.49,100.50 310.50,100.54 310.50,113.00 C310.50,120.83 310.97,126.62 311.76,128.50 C312.54,130.33 312.93,134.80 312.76,140.00 ZM 325.84 78.71 C321.16,80.68 320.30,80.37 320.51,76.80 C320.62,75.05 319.81,72.10 318.73,70.26 C317.64,68.42 316.75,65.81 316.75,64.47 C316.75,63.13 316.43,62.23 316.04,62.48 C314.77,63.26 311.00,59.94 311.00,58.05 C311.00,57.04 309.74,54.86 308.19,53.21 C306.07,50.94 304.76,50.32 302.82,50.69 C300.93,51.06 299.82,50.59 298.66,48.93 C297.79,47.69 297.26,46.39 297.47,46.05 C297.68,45.71 296.68,45.33 295.25,45.21 C293.82,45.09 291.91,44.32 291.00,43.50 C290.09,42.67 288.25,41.99 286.92,41.98 C282.99,41.96 281.28,40.42 282.68,38.16 C283.57,36.72 283.58,35.98 282.70,35.10 C280.58,32.98 288.18,36.12 294.00,39.77 C299.02,42.92 317.19,59.47 317.58,61.25 C317.68,61.66 317.81,62.45 317.88,63.00 C317.94,63.55 318.56,64.01 319.25,64.03 C320.65,64.07 323.03,67.08 326.54,73.27 L 328.90 77.42 ZM 184.00 65.94 C184.00,72.16 183.57,77.15 183.00,77.50 C182.45,77.84 182.00,77.69 182.00,77.17 C182.00,74.64 172.39,65.82 166.43,62.89 C162.90,61.15 160.00,59.39 160.00,58.97 C160.00,58.56 161.12,57.94 162.49,57.59 C164.88,56.99 169.00,58.67 169.00,60.24 C169.00,60.66 170.55,61.00 172.45,61.00 C174.48,61.00 176.25,61.62 176.74,62.51 C177.38,63.64 178.04,62.92 179.44,59.51 C182.67,51.68 184.00,53.55 184.00,65.94 ZM 103.49 198.81 C101.52,198.88 99.55,199.16 99.11,199.43 C97.24,200.59 94.00,196.83 94.00,193.50 C94.00,190.13 90.75,186.42 88.83,187.61 C87.41,188.48 86.78,185.28 87.94,183.12 C89.31,180.55 90.53,181.00 98.95,187.15 L 99.97 187.89 C109.23,194.64 111.63,196.39 111.40,196.85 C111.33,197.00 110.93,197.00 110.39,197.00 C110.33,197.00 110.28,197.00 110.22,197.00 C109.06,197.00 107.89,197.38 107.60,197.84 C107.32,198.30 105.47,198.73 103.49,198.81 ZM 181.18 270.27 C177.70,272.32 174.78,273.97 174.68,273.94 C172.90,273.36 162.00,265.55 162.00,264.85 C162.00,264.32 162.34,264.09 162.76,264.35 C163.17,264.61 165.76,264.23 168.51,263.52 C172.61,262.46 174.07,262.47 176.71,263.55 C179.46,264.67 180.53,264.63 184.00,263.27 C188.40,261.54 190.71,262.41 188.68,265.02 C188.03,265.86 184.66,268.22 181.18,270.27 ZM 83.66 53.94 C82.10,55.50 77.77,55.23 75.16,53.40 C73.90,52.52 72.00,52.03 70.94,52.31 C69.70,52.63 69.00,52.31 69.00,51.41 C69.00,50.63 69.34,49.93 69.75,49.84 C72.76,49.21 77.77,49.30 85.60,50.12 C91.81,50.77 96.22,50.73 99.50,50.00 C104.51,48.88 115.55,50.30 114.54,51.94 C114.27,52.37 112.01,53.30 109.53,53.99 C105.85,55.02 104.13,55.02 100.34,53.96 C94.87,52.42 85.19,52.41 83.66,53.94 ZM 300.56 207.08 C293.40,212.15 291.29,212.83 289.41,210.67 C287.94,208.99 289.67,207.45 294.08,206.50 C299.75,205.28 300.89,204.31 300.48,201.08 C300.01,197.33 301.64,196.02 306.25,196.45 C310.75,196.87 312.42,195.19 311.53,191.14 C310.79,187.77 312.13,186.41 314.74,187.88 C316.02,188.59 317.03,188.41 318.46,187.18 C320.39,185.53 320.39,185.54 318.69,188.25 C317.73,189.76 317.29,191.00 317.69,191.00 C319.29,191.00 307.11,202.43 300.56,207.08 ZM 290.85 74.50 C290.75,76.97 290.59,79.00 290.49,79.00 C290.39,79.00 289.47,78.07 288.44,76.94 C285.29,73.46 274.27,66.01 268.48,63.45 C265.47,62.12 263.00,60.84 263.00,60.61 C263.00,59.69 279.93,60.07 280.50,61.00 C280.84,61.55 281.30,62.96 281.53,64.15 C281.96,66.37 285.34,70.12 286.72,69.89 C290.32,69.30 291.01,70.08 290.85,74.50 ZM 155.00 111.00 C155.90,111.58 156.02,111.98 155.31,111.98 C153.77,112.00 152.71,110.28 153.49,109.01 C153.86,108.42 153.38,108.29 152.30,108.70 C150.70,109.30 150.66,109.18 151.91,107.64 C153.15,106.12 153.10,105.68 151.52,104.20 C150.53,103.26 150.01,103.02 150.37,103.67 C151.47,105.65 149.22,110.00 147.08,110.00 C144.16,110.00 143.55,108.29 143.47,99.86 C143.38,90.62 143.83,90.62 151.35,99.84 C154.34,103.50 157.70,107.47 158.83,108.65 C160.85,110.75 160.85,110.81 158.94,111.30 C157.88,111.58 156.75,111.40 156.44,110.91 C156.13,110.41 155.35,110.01 154.69,110.02 C153.98,110.02 154.10,110.42 155.00,111.00 ZM 204.00 256.12 C195.41,262.10 193.47,262.59 193.19,258.85 C192.99,256.24 193.25,256.00 196.29,256.00 C199.09,256.00 205.22,253.13 202.63,253.03 C202.15,253.01 202.32,252.32 203.00,251.50 C203.75,250.60 203.83,250.00 203.21,250.00 C202.56,250.00 202.46,248.96 202.93,247.25 C203.72,244.35 204.80,244.08 210.73,245.28 C213.33,245.81 214.48,245.46 216.63,243.47 C221.40,239.05 220.70,240.87 215.54,246.30 C212.77,249.22 207.57,253.64 204.00,256.12 ZM 335.07 107.96 C332.47,109.36 331.04,109.27 330.43,107.68 C329.50,105.24 330.47,85.67 331.55,85.32 C332.87,84.88 337.12,96.52 336.36,98.51 C336.04,99.33 335.27,100.00 334.64,100.00 C334.01,100.01 334.76,101.02 336.31,102.26 C338.73,104.19 338.98,104.85 338.12,107.00 C337.57,108.38 337.10,108.92 337.06,108.21 C337.02,107.26 336.51,107.19 335.07,107.96 ZM 173.75 109.74 C173.06,110.29 170.59,110.97 168.25,111.27 L 164.01 111.81 L 166.07 109.15 C170.44,103.55 184.26,88.93 184.74,89.40 C185.01,89.68 184.51,90.63 183.62,91.52 C182.38,92.76 182.25,93.60 183.06,95.11 C184.22,97.28 183.38,101.35 181.96,100.47 C181.46,100.17 179.70,100.62 178.03,101.48 C175.73,102.67 175.00,103.74 175.00,105.90 C175.00,107.47 174.44,109.20 173.75,109.74 ZM 228.00 57.00 C228.00,57.55 225.98,58.00 223.50,58.00 C218.40,58.00 217.25,56.06 222.25,55.88 C224.41,55.81 224.83,55.60 223.50,55.27 C222.40,54.99 221.20,54.28 220.82,53.69 C220.45,53.10 218.13,52.72 215.66,52.85 C213.10,52.98 210.86,52.59 210.46,51.93 C209.35,50.13 212.05,49.07 214.92,50.18 C216.41,50.76 220.73,50.91 225.15,50.53 C234.24,49.76 235.97,51.02 229.78,53.92 C227.43,55.02 226.06,55.94 226.75,55.96 C227.44,55.98 228.00,56.45 228.00,57.00 ZM 178.49 49.24 C177.24,52.07 174.35,52.70 173.60,50.31 C173.29,49.31 172.95,45.80 172.85,42.50 C172.74,39.20 172.18,35.83 171.59,35.00 C170.90,34.01 171.24,34.10 172.60,35.25 C173.73,36.21 175.18,37.00 175.81,37.00 C176.45,37.00 178.11,39.25 179.50,42.00 C181.23,45.41 181.63,47.00 180.75,47.00 C180.05,47.00 179.03,48.01 178.49,49.24 ZM 332.26 168.25 C329.35,174.86 327.35,175.93 328.50,170.25 C328.92,168.19 329.40,164.38 329.57,161.78 C329.73,159.18 330.26,156.36 330.73,155.52 C331.48,154.17 331.88,154.24 333.84,156.07 C336.36,158.41 336.26,159.18 332.26,168.25 ZM 225.51 235.23 C223.94,236.38 223.43,236.14 223.40,234.25 C223.38,233.29 223.07,231.60 222.70,230.50 C221.86,227.95 223.05,226.07 225.83,225.53 C227.03,225.30 228.53,224.79 229.16,224.40 C229.83,223.99 230.04,224.13 229.66,224.74 C229.30,225.32 229.71,226.06 230.56,226.39 C231.86,226.88 231.65,227.60 229.31,230.74 C227.77,232.81 226.06,234.83 225.51,235.23 ZM 341.00 127.15 C341.00,129.82 340.59,132.00 340.08,132.00 C338.75,132.00 337.65,126.26 337.92,120.70 C338.05,118.05 337.66,115.30 337.06,114.57 C335.76,113.01 336.69,110.00 338.46,110.00 C339.78,110.00 341.00,118.24 341.00,127.15 ZM 134.45 53.84 C130.93,55.45 125.49,55.29 124.04,53.54 C122.09,51.20 123.77,50.00 128.98,50.00 C136.87,50.00 139.24,51.66 134.45,53.84 ZM 238.24 212.82 C237.89,213.74 236.62,215.47 235.43,216.66 L 233.26 218.83 L 232.59 212.29 C232.22,208.69 232.19,205.48 232.52,205.15 C233.66,204.01 238.92,211.06 238.24,212.82 ZM 253.50 51.38 C253.50,53.52 249.46,54.70 245.25,53.80 C240.55,52.79 239.74,51.35 243.35,50.45 C246.52,49.65 253.50,50.29 253.50,51.38 ZM 324.00 181.71 C321.80,183.51 321.19,183.27 321.35,180.70 C321.46,179.08 322.17,178.34 323.75,178.21 C326.24,178.00 326.37,179.78 324.00,181.71 ZM 87.32 178.75 C88.34,180.34 86.78,180.38 85.20,178.80 C83.62,177.22 83.66,174.72 85.25,175.25 C85.94,175.48 86.51,176.08 86.52,176.58 C86.52,177.09 86.89,178.06 87.32,178.75 Z" fill="#1a1a2e"/>
<path d="M 49.18 149.50 C49.23,134.85 48.16,51.25 47.86,47.00 C47.64,43.81 48.62,34.42 49.29,33.34 C50.12,31.99 149.04,31.73 155.46,33.06 C157.91,33.57 161.02,33.45 163.61,32.76 L 167.81 31.64 L 165.52 29.84 C165.02,29.44 164.46,29.08 163.82,28.74 C169.47,30.62 173.34,33.29 176.56,37.49 C176.25,37.18 175.99,37.00 175.81,37.00 C175.18,37.00 173.73,36.21 172.60,35.25 C171.24,34.10 170.90,34.01 171.59,35.00 C172.18,35.83 172.74,39.20 172.85,42.50 C172.95,45.80 173.29,49.31 173.60,50.31 C174.35,52.70 177.24,52.07 178.49,49.24 C179.03,48.01 180.05,47.00 180.75,47.00 C181.59,47.00 181.26,45.55 179.73,42.47 C179.92,42.80 180.10,43.15 180.28,43.50 C182.73,48.25 183.27,49.91 183.62,57.60 C183.03,53.30 181.70,54.03 179.44,59.51 C178.04,62.92 177.38,63.64 176.74,62.51 C176.25,61.62 174.48,61.00 172.45,61.00 C170.55,61.00 169.00,60.66 169.00,60.24 C169.00,58.67 164.88,56.99 162.49,57.59 C161.12,57.94 160.00,58.56 160.00,58.97 C160.00,59.27 161.54,60.29 163.74,61.50 L 159.50 59.50 L 74.00 58.92 L 74.00 102.82 C74.00,127.99 74.43,148.98 75.00,152.01 C75.27,153.40 75.61,154.80 76.03,156.20 C75.40,154.39 75.00,153.02 75.00,152.57 C75.00,151.71 74.55,151.00 74.00,151.00 C73.45,151.00 73.00,151.63 73.00,152.39 C73.00,153.16 72.38,154.02 71.62,154.31 C69.75,155.03 68.17,151.11 69.07,148.00 C69.47,146.62 69.85,142.72 69.90,139.33 C70.02,132.21 70.66,130.00 72.61,130.00 C73.70,130.00 74.00,127.89 74.00,120.08 C74.00,113.67 73.61,110.04 72.88,109.79 C70.13,108.88 70.20,72.10 72.95,71.18 C73.53,70.99 74.00,68.20 74.00,64.98 C74.00,59.95 73.71,59.04 71.94,58.48 C70.80,58.12 69.52,56.88 69.09,55.72 C68.41,53.88 68.09,54.20 66.55,58.23 C64.98,62.35 64.89,64.49 65.75,78.47 C66.36,88.51 66.36,97.73 65.74,104.27 C65.09,111.09 65.12,121.19 65.85,134.92 C66.91,154.78 67.02,155.46 69.43,157.69 C70.82,158.99 72.18,161.64 72.52,163.75 C72.85,165.81 73.64,168.62 74.27,170.00 C75.49,172.66 75.70,173.48 75.88,176.25 C76.02,178.28 78.29,178.57 79.78,176.75 C81.75,174.35 81.41,169.93 78.72,163.10 C82.62,171.27 88.88,179.13 96.43,185.32 C90.26,180.94 89.16,180.84 87.94,183.12 C86.78,185.28 87.41,188.48 88.83,187.61 C90.75,186.42 94.00,190.13 94.00,193.50 C94.00,196.83 97.24,200.59 99.11,199.43 C99.55,199.16 101.52,198.88 103.49,198.81 C105.47,198.73 107.32,198.30 107.60,197.84 C107.89,197.38 109.06,197.00 110.22,197.00 C110.28,197.00 110.33,197.00 110.39,197.00 C110.93,197.00 111.33,197.00 111.40,196.85 C111.60,196.44 109.72,195.01 102.78,189.94 C104.22,190.86 105.69,191.72 107.19,192.50 C109.29,193.60 113.37,196.12 116.25,198.10 C118.91,199.92 123.97,203.26 127.97,205.82 C116.54,198.61 112.09,196.31 114.26,198.72 C115.72,200.35 115.83,201.19 114.90,203.86 C113.66,207.43 115.05,210.30 117.55,209.34 C118.81,208.86 121.75,211.38 125.91,216.52 C127.11,218.00 128.50,218.18 135.03,217.74 C142.16,217.25 142.94,217.39 145.61,219.68 C147.20,221.03 147.90,221.84 147.17,221.47 C146.19,220.96 145.93,221.53 146.17,223.64 C146.42,225.82 147.10,226.58 149.00,226.85 C151.62,227.21 154.27,229.56 154.83,232.03 C155.29,234.07 156.75,234.77 159.47,234.25 C161.28,233.91 161.78,234.23 161.66,235.65 C161.55,236.96 162.09,237.42 163.50,237.24 C170.51,236.34 176.30,236.70 175.50,238.00 C174.48,239.65 177.28,239.13 180.73,237.02 C182.78,235.77 183.75,234.52 183.40,233.59 C183.04,232.65 183.93,231.57 185.92,230.54 C187.82,229.56 189.00,229.36 189.00,230.03 C189.00,230.63 189.40,230.87 189.90,230.56 C191.02,229.87 192.23,232.82 191.38,234.19 C190.99,234.82 191.52,234.79 192.76,234.13 C193.87,233.54 195.06,231.92 195.40,230.53 C195.75,229.14 196.41,228.00 196.87,228.00 C197.32,228.00 198.77,227.06 200.09,225.92 C202.42,223.90 202.44,223.79 200.60,222.45 C199.56,221.69 198.28,221.33 197.75,221.65 C197.23,221.98 197.31,221.29 197.94,220.12 C198.56,218.95 199.31,218.00 199.59,218.00 C199.88,218.00 199.84,218.44 199.51,218.99 C199.15,219.57 199.57,219.72 200.52,219.35 C202.11,218.74 204.51,214.32 204.14,212.68 C204.03,212.22 204.36,212.10 204.86,212.41 C205.92,213.07 208.57,210.23 207.70,209.37 C206.70,208.36 209.36,206.28 211.08,206.73 C211.99,206.97 212.97,206.53 213.26,205.75 C214.12,203.52 214.52,110.64 213.68,109.29 C212.40,107.23 206.28,106.58 204.53,108.32 C202.48,110.38 202.41,112.73 204.46,111.04 C206.34,109.47 208.24,110.66 207.52,112.94 C207.21,113.92 207.59,115.25 208.37,115.89 C209.37,116.72 209.64,118.44 209.29,121.78 C209.01,124.38 208.50,141.35 208.14,159.50 C207.63,186.04 207.76,192.93 208.83,194.69 C210.53,197.50 210.01,201.58 207.99,201.26 C207.55,201.19 207.05,201.53 206.50,202.27 L 206.80 157.75 C206.98,129.68 206.74,113.00 206.14,113.00 C205.61,113.00 202.12,116.71 198.38,121.25 C194.65,125.79 187.51,134.23 182.53,140.00 C179.60,143.39 176.16,147.46 173.24,150.99 C175.93,147.71 178.98,144.05 181.50,141.08 C185.90,135.91 189.40,131.35 189.28,130.94 C189.17,130.54 191.16,128.02 193.71,125.35 C196.26,122.68 198.28,120.19 198.20,119.81 C198.11,119.43 199.22,118.19 200.65,117.06 C202.09,115.93 202.82,115.00 202.27,115.00 C201.72,115.00 200.20,115.82 198.88,116.83 C197.57,117.84 195.72,118.94 194.77,119.29 C193.68,119.69 193.26,120.52 193.65,121.52 C194.33,123.29 189.27,129.28 187.84,128.40 C186.09,127.32 183.00,129.17 182.97,131.32 C182.93,133.82 180.63,137.29 179.65,136.32 C179.29,135.96 179.00,136.27 179.00,137.00 C179.00,137.73 178.72,138.05 178.37,137.70 C178.02,137.35 176.90,137.52 175.87,138.07 C174.54,138.78 174.00,140.18 174.00,142.91 C174.00,147.70 172.21,149.32 167.80,148.49 C163.72,147.73 158.15,151.27 159.97,153.47 C160.73,154.38 160.55,155.12 159.33,156.12 C157.83,157.34 157.71,157.29 158.30,155.70 C158.73,154.55 158.59,154.13 157.92,154.55 C157.34,154.91 156.99,154.59 157.14,153.85 C157.60,151.62 155.06,148.00 153.04,148.00 C150.85,148.00 144.57,140.88 145.98,140.01 C146.50,139.69 145.54,137.87 143.84,135.96 C141.92,133.81 141.01,133.23 141.42,134.44 C142.06,136.32 142.02,136.33 140.10,134.59 C138.57,133.21 138.38,132.51 139.28,131.55 C140.21,130.55 140.74,130.59 141.88,131.74 C143.13,132.99 143.44,132.97 144.21,131.58 C145.75,128.83 144.16,127.91 140.51,129.43 C137.47,130.70 137.18,130.68 137.73,129.26 C138.17,128.12 137.96,127.90 137.01,128.49 C135.95,129.15 135.82,128.23 136.34,123.76 C137.06,117.64 136.58,117.03 131.50,117.61 C129.85,117.79 127.71,117.70 126.74,117.40 C125.18,116.92 125.14,116.63 126.42,114.81 C129.01,111.12 125.72,107.10 120.75,107.88 C120.34,107.95 120.00,107.52 120.00,106.94 C120.00,106.36 119.47,106.21 118.83,106.61 C118.05,107.09 117.87,106.79 118.28,105.71 C118.72,104.58 118.47,104.27 117.44,104.66 C116.37,105.07 116.16,104.75 116.66,103.44 C117.21,102.01 116.90,102.10 115.14,103.86 C113.92,105.08 113.20,106.52 113.54,107.06 C113.87,107.60 113.61,107.93 112.96,107.77 C112.30,107.62 111.63,108.33 111.46,109.34 C111.29,110.35 110.94,111.39 110.68,111.65 C110.42,111.91 110.80,114.34 111.52,117.06 C112.23,119.78 112.44,122.00 111.97,122.00 C111.50,122.00 111.27,123.24 111.45,124.75 C111.63,126.26 111.82,128.09 111.89,128.81 C111.95,129.53 112.45,129.84 113.00,129.50 C113.56,129.16 114.00,124.49 114.00,118.94 C114.00,113.47 114.41,109.00 114.92,109.00 C115.42,109.00 117.66,111.14 119.89,113.75 C128.80,124.17 142.83,140.51 148.73,147.31 C152.16,151.26 156.66,156.62 158.73,159.21 C158.82,159.32 158.92,159.44 159.01,159.55 L 158.66 159.18 C156.31,156.60 153.06,152.89 151.44,150.91 C137.21,133.55 117.11,111.00 115.87,111.00 C115.48,111.00 115.40,127.62 115.68,147.94 C115.91,164.28 115.91,178.55 115.71,183.82 C115.60,182.80 115.20,182.00 114.79,182.00 C114.35,182.00 113.93,179.64 113.85,176.75 C113.76,173.61 113.53,172.65 113.27,174.38 C112.85,177.20 112.75,177.24 108.17,176.53 C105.60,176.14 102.94,175.78 102.25,175.74 C101.56,175.70 101.00,175.22 101.00,174.67 C101.00,174.12 100.70,173.96 100.34,174.32 C99.57,175.10 97.00,173.17 97.00,171.82 C97.00,171.30 97.39,171.13 97.88,171.42 C98.36,171.72 98.15,170.29 97.42,168.23 C96.69,166.18 96.07,163.64 96.04,162.58 C95.99,160.02 93.16,157.00 91.43,157.66 C90.67,157.96 89.32,157.46 88.42,156.57 C86.96,155.10 86.85,151.64 87.34,122.98 C87.68,103.59 87.50,88.58 86.89,84.80 C85.65,77.08 86.75,74.62 92.65,71.93 C99.98,68.59 109.57,69.59 112.71,74.03 C113.96,75.77 118.46,75.68 119.58,73.88 C120.53,72.34 123.74,74.83 124.83,77.94 C125.67,80.36 126.38,80.88 128.59,80.71 C130.18,80.59 131.51,81.08 131.79,81.89 C132.09,82.78 131.82,83.01 131.06,82.53 C130.21,82.01 130.24,82.42 131.17,83.90 C131.89,85.05 132.88,86.00 133.36,86.00 C133.85,86.00 133.63,85.21 132.87,84.25 C131.63,82.67 131.67,82.63 133.22,83.85 C134.16,84.59 134.88,85.49 134.81,85.85 C134.54,87.24 136.26,89.96 137.08,89.45 C137.57,89.15 138.98,89.44 140.23,90.10 C142.41,91.24 142.43,91.21 140.82,89.40 C139.90,88.35 139.12,87.15 139.10,86.72 C139.08,86.30 135.18,81.46 130.43,75.97 L 123.47 67.93 L 131.13 76.57 C135.75,81.79 142.09,89.11 146.07,93.81 C143.60,91.58 143.41,93.59 143.47,99.86 C143.55,108.29 144.16,110.00 147.08,110.00 C149.22,110.00 151.47,105.65 150.37,103.67 C150.01,103.02 150.53,103.26 151.52,104.20 C153.10,105.68 153.15,106.12 151.91,107.64 C150.66,109.18 150.70,109.30 152.30,108.70 C153.38,108.29 153.86,108.42 153.49,109.01 C152.71,110.28 153.77,112.00 155.31,111.98 C156.02,111.98 155.90,111.58 155.00,111.00 C154.10,110.42 153.98,110.02 154.69,110.02 C155.35,110.01 156.13,110.41 156.44,110.91 C156.75,111.40 157.88,111.58 158.94,111.30 C160.85,110.81 160.85,110.75 158.83,108.65 C158.08,107.86 156.33,105.84 154.37,103.49 C155.95,105.30 157.36,106.86 158.29,107.86 L 162.38 112.21 L 168.46 105.86 C171.80,102.36 181.26,91.96 189.47,82.75 L 201.23 69.55 L 198.67 72.75 C195.69,76.46 192.03,80.62 190.53,82.00 C186.14,86.04 185.53,87.88 188.21,88.95 C191.11,90.12 192.19,90.16 193.74,89.18 C194.42,88.75 195.09,86.03 195.21,83.14 C195.45,77.76 196.72,75.72 199.99,75.48 C201.18,75.39 201.66,75.89 201.39,76.92 C201.16,77.79 201.66,77.02 202.50,75.22 C203.35,73.41 205.25,71.46 206.77,70.88 C209.43,69.84 226.50,70.42 231.96,71.73 C234.25,72.28 234.28,72.38 232.46,73.09 C230.90,73.70 231.16,73.87 233.75,73.93 C235.54,73.97 237.00,74.40 237.00,74.88 C237.00,75.37 237.90,76.00 239.00,76.29 C240.30,76.63 241.00,76.32 241.00,75.41 C241.00,74.63 241.45,74.00 242.00,74.00 C242.53,74.00 242.97,72.31 243.00,70.20 L 242.98 126.75 C242.97,160.16 242.56,191.32 242.07,196.00 C240.90,207.07 236.44,219.93 231.01,228.24 C231.62,227.13 231.41,226.71 230.56,226.39 C229.71,226.06 229.30,225.32 229.66,224.74 C230.04,224.13 229.83,223.99 229.16,224.40 C228.53,224.79 227.03,225.30 225.83,225.53 C223.05,226.07 221.86,227.95 222.70,230.50 C223.07,231.60 223.38,233.29 223.40,234.25 C223.43,236.14 223.94,236.38 225.51,235.23 C225.95,234.91 227.14,233.54 228.39,231.95 C227.57,233.17 227.00,234.26 227.00,234.64 C227.00,235.16 223.73,238.94 219.73,243.04 C216.56,246.29 212.41,249.83 207.48,253.51 C210.43,251.16 213.58,248.36 215.54,246.30 C220.70,240.87 221.40,239.05 216.63,243.47 C214.48,245.46 213.33,245.81 210.73,245.28 C204.80,244.08 203.72,244.35 202.93,247.25 C202.46,248.96 202.56,250.00 203.21,250.00 C203.83,250.00 203.75,250.60 203.00,251.50 C202.32,252.32 202.15,253.01 202.63,253.03 C205.22,253.13 199.09,256.00 196.29,256.00 C193.25,256.00 192.99,256.24 193.19,258.85 C193.42,261.88 194.73,262.13 199.79,258.94 C194.87,262.25 189.43,265.61 183.61,268.93 C182.16,269.76 180.78,270.53 179.56,271.22 C180.08,270.92 180.62,270.60 181.18,270.27 C184.66,268.22 188.03,265.86 188.68,265.02 C190.71,262.41 188.40,261.54 184.00,263.27 C180.53,264.63 179.46,264.67 176.71,263.55 C174.07,262.47 172.61,262.46 168.51,263.52 C165.76,264.23 163.17,264.61 162.76,264.35 C162.34,264.09 162.00,264.32 162.00,264.85 C162.00,265.26 165.87,268.21 169.38,270.64 C165.91,268.49 161.17,265.55 156.50,262.66 C156.63,262.13 156.66,260.87 156.62,258.75 C156.55,254.48 154.69,251.80 152.42,252.67 C151.78,252.91 150.97,252.37 150.62,251.45 C150.27,250.54 149.39,250.02 148.66,250.30 C147.72,250.66 147.38,249.95 147.51,247.90 C147.70,244.63 147.49,244.56 138.66,244.95 C131.60,245.27 125.77,242.72 126.18,239.50 C126.57,236.50 125.20,235.00 122.10,235.00 C120.56,235.00 118.52,234.12 117.55,233.05 C115.85,231.18 115.88,231.01 118.39,228.69 C121.50,225.81 121.57,225.38 119.12,224.06 C117.80,223.36 115.16,223.49 110.37,224.51 C106.59,225.31 102.71,225.97 101.75,225.98 C99.49,226.01 95.70,222.22 96.33,220.58 C97.04,218.73 95.48,216.70 93.21,216.53 C89.48,216.26 86.15,213.21 85.81,209.77 C85.57,207.26 84.98,206.43 83.25,206.18 C82.01,206.00 81.00,206.33 81.00,206.91 C81.00,207.63 80.16,207.63 78.29,206.92 C76.80,206.35 74.62,206.13 73.44,206.42 C71.38,206.94 68.56,204.76 66.46,201.00 C65.71,199.67 65.83,199.67 67.50,201.00 C69.17,202.33 69.28,202.33 68.45,201.00 C67.94,200.18 67.51,196.82 67.51,193.53 L 67.50 187.57 L 64.07 187.39 C60.29,187.20 57.95,184.90 58.68,182.10 C58.94,181.11 58.40,179.54 57.47,178.61 C55.62,176.77 53.82,177.60 51.89,181.20 C51.45,182.03 51.64,183.38 52.38,185.12 C50.55,181.92 48.90,178.60 47.45,175.19 L 48.25 171.00 C48.73,168.52 49.14,158.85 49.18,149.50 ZM 206.90 38.55 L 208.12 33.10 L 212.81 32.30 C215.39,31.86 230.77,31.59 247.00,31.71 C264.06,31.83 275.87,31.55 275.00,31.05 C274.55,30.79 274.02,30.53 273.43,30.28 C281.01,32.55 287.60,35.65 294.00,39.77 C288.18,36.12 280.58,32.98 282.70,35.10 C283.58,35.98 283.57,36.72 282.68,38.16 C281.28,40.42 282.99,41.96 286.92,41.98 C288.25,41.99 290.09,42.67 291.00,43.50 C291.91,44.32 293.82,45.09 295.25,45.21 C296.68,45.33 297.68,45.71 297.47,46.05 C297.26,46.39 297.79,47.69 298.66,48.93 C299.82,50.59 300.93,51.06 302.82,50.69 C304.76,50.32 306.07,50.94 308.19,53.21 C309.74,54.86 311.00,57.04 311.00,58.05 C311.00,59.94 314.77,63.26 316.04,62.48 C316.43,62.23 316.75,63.13 316.75,64.47 C316.75,65.81 317.64,68.42 318.73,70.26 C319.81,72.10 320.62,75.05 320.51,76.80 C320.30,80.37 321.16,80.68 325.84,78.71 L 328.79 77.47 C330.71,81.16 332.40,84.95 333.87,88.82 C332.96,86.71 332.05,85.15 331.55,85.32 C330.47,85.67 329.50,105.24 330.43,107.68 C331.04,109.27 332.47,109.36 335.07,107.96 C336.51,107.19 337.02,107.26 337.06,108.21 C337.10,108.92 337.57,108.38 338.12,107.00 C338.98,104.85 338.73,104.19 336.31,102.26 C334.76,101.02 334.01,100.01 334.64,100.00 C335.27,100.00 336.04,99.33 336.36,98.51 C336.59,97.89 336.35,96.33 335.85,94.49 C338.09,101.56 339.60,108.82 340.35,116.14 C339.87,112.46 339.18,110.00 338.46,110.00 C336.69,110.00 335.76,113.01 337.06,114.57 C337.66,115.30 338.05,118.05 337.92,120.70 C337.65,126.26 338.75,132.00 340.08,132.00 C340.42,132.00 340.71,131.03 340.87,129.59 C340.61,140.13 338.76,150.64 335.27,160.70 C335.92,158.31 335.35,157.47 333.84,156.07 C331.88,154.24 331.48,154.17 330.73,155.52 C330.26,156.36 329.73,159.18 329.57,161.78 C329.40,164.38 328.92,168.19 328.50,170.25 C327.35,175.93 329.35,174.86 332.26,168.25 C332.79,167.04 333.26,165.98 333.65,165.05 C332.69,167.45 331.64,169.82 330.48,172.16 C327.06,179.10 322.73,185.60 317.70,191.47 C317.88,191.17 317.89,191.00 317.69,191.00 C317.29,191.00 317.73,189.76 318.69,188.25 C320.39,185.54 320.39,185.53 318.46,187.18 C317.03,188.41 316.02,188.59 314.74,187.88 C312.13,186.41 310.79,187.77 311.53,191.14 C312.42,195.19 310.75,196.87 306.25,196.45 C301.64,196.02 300.01,197.33 300.48,201.08 C300.89,204.31 299.75,205.28 294.08,206.50 C289.67,207.45 287.94,208.99 289.41,210.67 C291.29,212.83 293.40,212.15 300.56,207.08 C304.41,204.35 310.21,199.27 314.01,195.55 C303.18,206.84 289.72,215.36 275.50,219.52 C275.47,219.53 275.44,219.53 275.41,219.54 C279.35,218.35 283.09,216.79 284.18,215.84 L 286.44 213.88 L 276.47 214.54 C270.99,214.91 265.74,215.61 264.82,216.10 C262.34,217.42 256.77,217.14 254.72,215.59 C253.40,214.59 252.82,212.38 252.47,207.12 C252.19,202.78 252.39,200.00 252.99,200.00 C253.53,200.00 254.25,198.29 254.58,196.21 C255.09,193.04 255.61,192.39 257.77,192.21 C259.19,192.09 261.16,191.26 262.14,190.37 C264.47,188.26 274.50,185.95 278.15,186.68 C280.15,187.08 281.03,186.84 281.12,185.88 C281.18,185.12 281.34,184.05 281.46,183.50 C281.59,182.95 281.76,181.89 281.85,181.14 C281.94,180.35 282.64,180.03 283.55,180.38 C284.44,180.72 284.84,180.56 284.49,179.99 C284.16,179.44 284.47,178.96 285.19,178.92 C290.99,178.56 292.23,178.25 293.04,176.96 C293.55,176.16 294.03,174.49 294.11,173.25 C294.19,172.01 294.36,170.55 294.50,170.00 C294.64,169.45 294.81,168.61 294.88,168.14 C294.94,167.66 296.01,167.27 297.25,167.26 C298.49,167.25 299.95,167.19 300.50,167.12 C301.05,167.05 301.53,164.55 301.57,161.55 C301.61,158.56 301.31,156.31 300.91,156.55 C300.52,156.80 298.85,159.36 297.22,162.25 C292.85,169.96 282.15,179.61 273.61,183.52 C273.52,183.56 273.42,183.61 273.32,183.65 C288.21,176.31 299.99,161.89 305.56,143.50 C308.31,134.40 308.15,116.64 305.23,107.65 C299.77,90.86 289.75,77.06 277.23,68.38 C281.91,71.39 286.57,74.87 288.44,76.94 C289.47,78.07 290.39,79.00 290.49,79.00 C290.59,79.00 290.75,76.97 290.85,74.50 C291.01,70.08 290.32,69.30 286.72,69.89 C285.34,70.12 281.96,66.37 281.53,64.15 C281.30,62.96 280.84,61.55 280.50,61.00 C279.93,60.07 263.00,59.69 263.00,60.61 C263.00,60.76 264.05,61.35 265.61,62.12 C263.45,61.26 261.24,60.54 259.00,59.97 C256.52,59.34 243.14,58.58 229.25,58.29 L 204.00 57.76 L 204.00 34.50 C204.00,39.72 204.38,44.00 204.84,44.00 C205.30,44.00 206.23,41.55 206.90,38.55 ZM 43.05 162.29 C42.47,160.05 41.97,157.79 41.56,155.50 C40.15,147.72 39.97,138.30 40.22,86.00 L 40.50 25.50 L 40.62 29.36 C40.69,31.49 41.19,33.51 41.72,33.86 C42.26,34.21 43.01,36.50 43.39,38.95 C43.77,41.40 44.55,43.96 45.12,44.64 C46.21,45.96 45.95,52.94 43.92,75.96 C42.99,86.53 43.01,91.89 43.99,100.96 C44.68,107.31 45.19,115.43 45.13,119.00 C44.98,128.10 42.82,144.01 41.83,143.39 C39.91,142.21 40.91,153.03 43.05,162.29 ZM 312.76 140.00 C312.93,134.80 312.54,130.33 311.76,128.50 C310.97,126.62 310.50,120.83 310.50,113.00 C310.50,100.54 310.49,100.50 308.19,100.75 C306.32,100.95 305.50,100.13 303.86,96.42 C302.74,93.90 302.07,91.59 302.37,91.30 C303.07,90.60 300.46,88.00 299.07,88.00 C297.32,88.00 297.81,90.13 301.20,97.25 C302.97,100.96 305.01,104.00 305.75,104.00 C306.68,104.00 307.03,105.29 306.90,108.25 C306.80,110.59 307.07,115.73 307.50,119.68 C307.99,124.25 307.82,130.33 307.02,136.35 C305.65,146.69 306.36,149.23 310.50,148.74 C312.30,148.52 312.53,147.65 312.76,140.00 ZM 83.66 53.94 C85.19,52.41 94.87,52.42 100.34,53.96 C104.13,55.02 105.85,55.02 109.53,53.99 C112.01,53.30 114.27,52.37 114.54,51.94 C115.55,50.30 104.51,48.88 99.50,50.00 C96.22,50.73 91.81,50.77 85.60,50.12 C77.77,49.30 72.76,49.21 69.75,49.84 C69.34,49.93 69.00,50.63 69.00,51.41 C69.00,52.31 69.70,52.63 70.94,52.31 C72.00,52.03 73.90,52.52 75.16,53.40 C77.77,55.23 82.10,55.50 83.66,53.94 ZM 173.75 109.74 C174.44,109.20 175.00,107.47 175.00,105.90 C175.00,103.74 175.73,102.67 178.03,101.48 C179.70,100.62 181.46,100.17 181.96,100.47 C183.38,101.35 184.22,97.28 183.06,95.11 C182.25,93.60 182.38,92.76 183.62,91.52 C184.51,90.63 185.01,89.68 184.74,89.40 C184.26,88.93 170.44,103.55 166.07,109.15 L 164.01 111.81 L 168.25 111.27 C170.59,110.97 173.06,110.29 173.75,109.74 ZM 228.00 57.00 C228.00,56.45 227.44,55.98 226.75,55.96 C226.06,55.94 227.43,55.02 229.78,53.92 C235.97,51.02 234.24,49.76 225.15,50.53 C220.73,50.91 216.41,50.76 214.92,50.18 C212.05,49.07 209.35,50.13 210.46,51.93 C210.86,52.59 213.10,52.98 215.66,52.85 C218.13,52.72 220.45,53.10 220.82,53.69 C221.20,54.28 222.40,54.99 223.50,55.27 C224.83,55.60 224.41,55.81 222.25,55.88 C217.25,56.06 218.40,58.00 223.50,58.00 C225.98,58.00 228.00,57.55 228.00,57.00 ZM 134.45 53.84 C139.24,51.66 136.87,50.00 128.98,50.00 C123.77,50.00 122.09,51.20 124.04,53.54 C125.49,55.29 130.93,55.45 134.45,53.84 ZM 238.24 212.82 C238.92,211.06 233.66,204.01 232.52,205.15 C232.19,205.48 232.22,208.69 232.59,212.29 L 233.26 218.83 L 235.43 216.66 C236.62,215.47 237.89,213.74 238.24,212.82 ZM 253.50 51.38 C253.50,50.29 246.52,49.65 243.35,50.45 C239.74,51.35 240.55,52.79 245.25,53.80 C249.46,54.70 253.50,53.52 253.50,51.38 ZM 322.56 66.94 C321.13,65.01 320.03,64.05 319.25,64.03 C318.56,64.01 317.94,63.55 317.88,63.00 C317.81,62.45 317.68,61.66 317.58,61.25 C317.20,59.51 299.73,43.57 294.31,39.97 C295.50,40.74 296.68,41.55 297.85,42.39 C300.25,44.10 303.24,46.06 304.50,46.76 C305.76,47.45 309.23,50.64 312.21,53.86 C316.03,57.99 319.48,62.36 322.56,66.94 ZM 324.00 181.71 C326.37,179.78 326.24,178.00 323.75,178.21 C322.17,178.34 321.46,179.08 321.35,180.70 C321.19,183.27 321.80,183.51 324.00,181.71 ZM 244.21 218.04 C244.72,216.41 245.37,214.46 246.06,212.44 C247.36,208.65 248.61,203.55 249.27,199.56 C248.15,211.10 247.63,214.00 246.83,214.00 C246.28,214.00 245.11,215.97 244.21,218.04 ZM 58.06 193.85 C60.45,196.84 63.44,200.12 66.88,203.49 C71.95,208.47 76.18,212.20 80.54,215.44 C80.38,215.34 80.24,215.24 80.10,215.15 C71.60,209.43 64.15,202.17 58.06,193.85 ZM 87.32 178.75 C86.89,178.06 86.52,177.09 86.52,176.58 C86.51,176.08 85.94,175.48 85.25,175.25 C83.66,174.72 83.62,177.22 85.20,178.80 C86.78,180.38 88.34,180.34 87.32,178.75 ZM 194.26 221.15 C189.89,225.87 184.88,230.24 180.75,232.60 L 175.33 235.71 L 170.50 232.74 C172.86,234.10 174.44,234.74 175.97,234.64 C178.59,234.46 181.07,232.11 187.00,227.43 C189.78,225.24 192.18,223.17 194.26,221.15 ZM 92.26 222.96 C95.87,224.98 101.05,228.10 104.05,230.06 C107.68,232.44 114.44,236.70 121.76,241.26 L 112.50 235.56 C105.59,231.31 98.30,226.77 92.26,222.96 ZM 152.26 26.19 C142.21,25.25 124.83,25.08 93.00,25.24 C132.53,25.05 144.74,25.20 152.26,26.19 ZM 100.11 177.72 C99.18,176.95 98.30,176.16 97.51,175.38 C94.57,172.49 90.59,167.28 88.67,163.81 C86.35,159.63 84.84,156.82 83.86,152.96 C86.77,162.25 92.77,171.24 100.11,177.72 ZM 145.51 255.86 C148.61,257.74 150.86,259.06 151.69,259.50 C153.78,260.60 155.64,261.83 155.83,262.25 C152.05,259.90 148.37,257.63 145.51,255.86 ZM 255.17 222.75 C248.46,223.31 243.00,223.29 243.00,222.33 C243.00,222.30 243.01,222.26 243.02,222.20 C243.33,223.11 248.71,223.21 255.17,222.75 ZM 183.31 76.83 C183.64,75.50 183.90,72.40 183.97,68.52 C184.06,73.52 183.90,76.08 183.31,76.83 ZM 178.04 71.70 C179.90,73.56 181.32,75.28 181.81,76.42 C181.34,75.96 180.79,75.25 180.13,74.34 C179.46,73.42 178.77,72.54 178.04,71.70 ZM 249.82 26.02 C241.99,25.36 232.88,25.00 223.04,25.00 C233.24,25.00 242.05,25.31 249.82,26.02 ZM 260.36 188.04 C257.64,188.66 255.14,189.00 253.11,189.00 C254.52,189.00 257.63,188.58 260.36,188.04 ZM 82.12 132.65 C82.01,126.06 82.00,117.58 82.00,106.32 C82.00,117.87 82.03,126.33 82.12,132.65 ZM 162.88 163.78 C163.20,163.45 163.88,162.63 164.79,161.51 L 162.94 163.85 ZM 115.58 185.74 C115.56,185.85 115.55,185.93 115.53,185.96 C115.43,186.11 115.25,186.20 115.01,186.24 C115.28,186.16 115.46,186.00 115.58,185.74 ZM 111.61 185.26 C111.08,185.01 110.51,184.73 109.91,184.41 C110.54,184.73 111.10,185.02 111.61,185.26 ZM 251.73 189.07 C252.08,189.01 252.50,189.00 253.03,189.00 C252.50,189.00 252.08,189.01 251.73,189.07 Z" fill="#1a1a2e"/>
<path d="M 0.00 148.50 L 0.00 0.00 L 183.00 0.00 L 366.00 0.00 L 366.00 148.50 L 366.00 297.00 L 183.00 297.00 L 0.00 297.00 L 0.00 148.50 ZM 183.61 268.93 C199.31,259.98 212.27,250.69 219.73,243.04 C223.73,238.94 227.00,235.16 227.00,234.64 C227.00,234.12 228.06,232.30 229.36,230.59 C235.52,222.51 240.79,208.17 242.07,196.00 C242.56,191.32 242.97,160.16 242.98,126.75 L 243.00 66.00 L 223.70 66.00 L 204.40 66.00 L 189.47 82.75 C181.26,91.96 171.80,102.36 168.46,105.86 L 162.38 112.21 L 158.29 107.86 C156.04,105.46 151.12,99.82 147.35,95.32 C143.58,90.83 136.28,82.39 131.13,76.57 L 121.75 66.00 L 101.88 66.00 L 82.00 66.00 L 82.00 106.32 C82.00,151.06 82.10,151.96 88.67,163.81 C90.59,167.28 94.57,172.49 97.51,175.38 C103.50,181.28 114.45,187.70 115.53,185.96 C115.90,185.36 115.97,168.25 115.68,147.94 C115.40,127.62 115.48,111.00 115.87,111.00 C117.11,111.00 137.21,133.55 151.44,150.91 C153.06,152.89 156.31,156.60 158.66,159.18 L 162.94 163.85 L 168.20 157.18 C171.10,153.50 177.54,145.77 182.53,140.00 C187.51,134.23 194.65,125.79 198.38,121.25 C202.12,116.71 205.61,113.00 206.14,113.00 C206.74,113.00 206.98,129.68 206.80,157.75 L 206.50 202.50 L 203.86 208.13 C200.70,214.87 195.75,220.53 187.00,227.43 C174.95,236.93 177.16,236.84 163.46,228.41 C156.88,224.36 148.12,218.84 144.00,216.15 C139.88,213.45 133.12,209.10 129.00,206.47 C124.88,203.85 119.14,200.08 116.25,198.10 C113.37,196.12 109.29,193.60 107.19,192.50 C91.12,184.08 77.94,167.50 75.00,152.01 C74.43,148.98 74.00,127.99 74.00,102.82 L 74.00 58.92 L 116.75 59.21 L 159.50 59.50 L 165.00 62.09 C171.53,65.17 176.26,68.99 180.13,74.34 C183.92,79.57 184.34,78.16 183.80,62.22 C183.40,50.40 183.15,49.08 180.28,43.50 C174.86,32.98 168.78,28.98 154.50,26.53 C147.01,25.24 136.69,25.02 93.00,25.24 L 40.50 25.50 L 40.22 86.00 C39.97,138.30 40.15,147.72 41.56,155.50 C45.93,179.75 60.11,201.69 80.10,215.15 C84.72,218.26 99.30,227.44 112.50,235.56 C125.70,243.68 138.98,251.84 142.00,253.70 C149.26,258.16 174.47,273.79 174.61,273.91 C174.67,273.96 178.72,271.72 183.61,268.93 ZM 275.50 219.52 C298.40,212.82 319.31,194.81 330.48,172.16 C349.43,133.74 342.08,86.12 312.21,53.86 C309.23,50.64 305.76,47.45 304.50,46.76 C303.24,46.06 300.25,44.10 297.85,42.39 C279.56,29.32 260.96,25.00 223.04,25.00 L 204.00 25.00 L 204.00 41.38 L 204.00 57.76 L 229.25 58.29 C243.14,58.58 256.52,59.34 259.00,59.97 C279.82,65.26 297.32,83.31 305.23,107.65 C308.15,116.64 308.31,134.40 305.56,143.50 C298.55,166.65 281.71,183.50 261.20,187.87 C258.29,188.49 254.64,189.00 253.10,189.00 C250.33,189.00 250.28,189.11 249.70,196.25 C249.38,200.27 247.76,207.48 246.06,212.44 C244.38,217.35 243.00,221.81 243.00,222.33 C243.00,224.30 265.97,222.30 275.50,219.52 Z" fill="none"/>
</g>
</svg>